<!DOCTYPE svg PUBLIC "-//W3C//DTD SVG 20010904//EN" "http://www.w3.org/TR/2001/REC-SVG-20010904/DTD/svg10.dtd">
<svg version="1.0" xmlns="http://www.w3.org/2000/svg" width="750px" height="1200px" viewBox="0 0 7500 12000" preserveAspectRatio="xMidYMid meet">
<g id="layer101" fill="#ffffff" stroke="none">
 <path d="M2448 9373 l-3 -2628 -953 -3 -952 -2 2 -1078 3 -1077 953 -3 952 -2 0 -883 c1 -1167 10 -1303 115 -1737 17 -70 75 -257 95 -305 5 -11 23 -56 40 -100 76 -190 196 -397 339 -585 81 -106 291 -317 394 -396 283 -215 610 -371 957 -459 36 -9 81 -21 100 -26 78 -21 332 -58 490 -71 224 -19 791 -9 975 17 22 3 99 10 170 15 127 10 316 30 465 50 158 20 296 41 330 48 l35 8 0 914 0 915 -585 6 c-404 3 -604 9 -645 17 -311 64 -477 145 -637 310 -172 176 -261 388 -293 695 -12 115 -15 280 -13 852 l3 710 1044 3 1043 2 -6 26 c-4 14 -13 71 -22 127 -8 56 -21 145 -29 197 -8 52 -19 124 -25 160 -5 36 -17 109 -25 163 -8 53 -22 143 -31 200 -8 56 -19 129 -25 162 -5 33 -16 105 -24 160 -20 131 -23 151 -41 270 -8 55 -19 123 -24 150 -5 28 -12 75 -15 105 -3 30 -10 78 -15 105 -8 43 -25 148 -46 298 l-6 37 -867 0 c-661 0 -870 3 -879 12 -9 9 -12 607 -12 2630 l0 2618 -1165 0 -1165 0 -2 -2627z"/>
 </g>

</svg>