<!DOCTYPE svg PUBLIC "-//W3C//DTD SVG 20010904//EN" "http://www.w3.org/TR/2001/REC-SVG-20010904/DTD/svg10.dtd">
<svg version="1.0" xmlns="http://www.w3.org/2000/svg" width="1049px" height="1200px" viewBox="0 0 10490 12000" preserveAspectRatio="xMidYMid meet">
<g id="layer101" fill="#ffffff" stroke="none">
<path d="M3960 11234 c-1010 -19 -1406 -56 -1830 -168 -129 -34 -313 -95 -326 -109 -4 -4 -14 -7 -21 -7 -27 0 -299 -137 -408 -205 -488 -304 -875 -764 -1081 -1282 -62 -156 -118 -336 -145 -462 -89 -418 -112 -694 -131 -1566 -15 -741 -21 -1946 -9 -1958 8 -8 11 -206 13 -636 0 -345 4 -603 8 -576 4 31 8 -23 9 -145 4 -339 23 -635 52 -810 22 -135 41 -236 49 -270 5 -19 19 -75 31 -125 79 -332 246 -696 436 -954 114 -154 295 -350 438 -473 289 -248 656 -441 1055 -553 92 -26 127 -34 205 -50 44 -9 100 -21 125 -26 144 -30 406 -55 785 -76 281 -15 530 -17 2035 -17 1497 0 1754 2 2025 17 339 19 481 30 595 47 223 34 326 54 470 92 41 11 89 24 105 28 46 12 150 48 234 81 611 240 1120 700 1421 1283 54 105 145 331 174 431 10 33 21 71 26 85 15 45 59 233 75 325 9 50 20 115 25 145 28 157 49 444 50 668 0 97 4 162 10 162 6 0 10 195 10 527 0 353 4 529 11 533 13 9 6 1799 -10 2375 -14 541 -40 949 -71 1125 -5 30 -16 96 -25 145 -9 50 -20 106 -25 125 -5 19 -16 67 -25 105 -9 39 -20 81 -25 95 -5 14 -16 52 -26 85 -29 98 -102 283 -156 394 -134 275 -292 494 -518 721 -233 233 -451 388 -743 528 -59 29 -110 52 -113 52 -3 0 -20 6 -37 14 -62 26 -92 38 -132 51 -66 22 -238 73 -270 80 -16 3 -59 13 -95 21 -162 35 -396 70 -570 85 -392 32 -832 40 -2175 43 -748 2 -1425 2 -1505 0z m3015 -933 c306 -14 666 -45 825 -71 236 -39 235 -39 415 -90 494 -141 941 -556 1131 -1052 63 -165 88 -274 144 -638 21 -129 44 -448 60 -800 13 -291 13 -3016 0 -3310 -20 -449 -53 -804 -98 -1035 -6 -27 -15 -77 -22 -110 -6 -33 -15 -73 -20 -90 -5 -16 -21 -68 -35 -115 -32 -104 -136 -319 -203 -420 -125 -187 -305 -369 -482 -488 -141 -94 -342 -192 -455 -223 -163 -43 -201 -52 -355 -80 -184 -33 -626 -72 -1000 -88 -342 -15 -2951 -15 -3285 0 -236 10 -612 38 -790 59 -238 28 -536 95 -660 150 -366 159 -632 379 -831 686 -186 288 -275 591 -324 1104 -52 544 -54 641 -53 2340 0 1329 3 1603 16 1820 25 379 53 653 86 820 5 25 14 74 21 110 6 36 15 79 20 95 56 181 80 246 127 343 118 242 272 438 471 599 162 130 336 230 517 295 147 53 208 67 505 118 171 29 685 68 1035 78 400 11 2956 6 3240 -7z"/>
<path d="M5047 8675 c-156 -13 -218 -22 -367 -52 -83 -16 -87 -18 -245 -67 -947 -295 -1658 -1106 -1829 -2086 -33 -192 -39 -262 -39 -469 0 -218 8 -308 45 -501 31 -162 37 -192 48 -224 6 -17 23 -72 39 -121 27 -82 35 -104 62 -170 136 -333 331 -627 579 -876 289 -291 584 -482 970 -629 217 -83 414 -127 712 -159 382 -42 871 35 1263 198 222 93 487 251 660 396 225 187 451 446 594 680 48 78 201 386 201 403 0 6 7 28 16 49 29 67 33 77 58 163 40 137 65 252 98 455 18 109 18 563 0 670 -32 191 -60 328 -83 400 -125 405 -282 700 -529 994 -278 330 -642 597 -1025 751 -44 17 -89 36 -100 40 -45 20 -183 61 -264 80 -47 11 -95 23 -106 25 -89 23 -503 68 -580 64 -11 -1 -91 -7 -178 -14z m433 -936 c357 -51 688 -206 949 -445 282 -259 470 -598 548 -989 27 -136 24 -504 -5 -635 -35 -159 -41 -182 -79 -280 -115 -302 -299 -561 -534 -750 -122 -98 -186 -139 -314 -205 -181 -92 -299 -131 -540 -177 -92 -17 -426 -17 -520 0 -407 76 -697 225 -971 497 -374 373 -553 853 -514 1381 9 127 13 151 47 294 56 233 187 491 344 680 290 348 690 571 1129 629 148 20 318 20 460 0z"/>
<path d="M7930 3804 c-222 -43 -397 -201 -477 -429 -25 -72 -25 -290 0 -360 83 -232 249 -382 477 -429 93 -20 140 -20 228 -1 242 50 407 197 484 430 33 99 33 261 0 360 -65 196 -188 325 -387 406 -34 14 -175 39 -214 38 -20 0 -70 -7 -111 -15z"/>
</g>
<g id="layer102" fill="#ffffff" stroke="none">
<path d="M10430 8208 c0 -27 5 -48 10 -48 13 0 13 60 0 80 -7 11 -10 2 -10 -32z"/>
<path d="M46 8204 c-10 -25 -7 -94 4 -94 6 0 10 25 10 55 0 57 -3 66 -14 39z"/>
<path d="M10456 7503 c5 -572 10 -713 26 -713 7 0 9 55 5 168 -4 92 -11 369 -16 616 -6 247 -12 451 -15 453 -2 2 -2 -233 0 -524z"/>
<path d="M29 7948 c0 -18 -4 -247 -10 -508 -5 -261 -12 -577 -15 -702 -5 -154 -3 -228 4 -228 6 0 12 68 16 183 7 237 16 1287 10 1287 -2 0 -4 -15 -5 -32z"/>
<path d="M0 5450 c0 -7 3 -10 7 -7 3 4 3 10 0 14 -4 3 -7 0 -7 -7z"/>
<path d="M4 5275 c0 -88 2 -123 3 -77 2 46 2 118 0 160 -1 42 -3 5 -3 -83z"/>
<path d="M23 4270 c0 -30 2 -43 4 -27 2 15 2 39 0 55 -2 15 -4 2 -4 -28z"/>
<path d="M10453 4203 c4 -3 10 -3 14 0 3 4 0 7 -7 7 -7 0 -10 -3 -7 -7z"/>
<path d="M10453 4183 c4 -3 10 -3 14 0 3 4 0 7 -7 7 -7 0 -10 -3 -7 -7z"/>
<path d="M10453 4163 c4 -3 10 -3 14 0 3 4 0 7 -7 7 -7 0 -10 -3 -7 -7z"/>
<path d="M10433 3813 c4 -3 10 -3 14 0 3 4 0 7 -7 7 -7 0 -10 -3 -7 -7z"/>
<path d="M10433 3793 c4 -3 10 -3 14 0 3 4 0 7 -7 7 -7 0 -10 -3 -7 -7z"/>
<path d="M10430 3769 c0 -5 5 -7 10 -4 6 3 10 8 10 11 0 2 -4 4 -10 4 -5 0 -10 -5 -10 -11z"/>
</g>


</svg>