<!DOCTYPE svg PUBLIC "-//W3C//DTD SVG 20010904//EN" "http://www.w3.org/TR/2001/REC-SVG-20010904/DTD/svg10.dtd">
<svg version="1.0" xmlns="http://www.w3.org/2000/svg" width="900px" height="1200px" viewBox="0 0 9000 12000" preserveAspectRatio="xMidYMid meet">
<g id="layer101" fill="#ffffff" stroke="none">
 <path d="M1966 11810 c-29 -35 -29 -37 -51 -270 -9 -96 -18 -188 -21 -205 -7 -40 -32 -317 -44 -480 -12 -167 -12 -622 0 -790 10 -140 34 -370 49 -475 5 -36 14 -101 20 -145 6 -44 15 -105 20 -135 6 -30 17 -98 26 -150 28 -165 45 -264 55 -305 5 -22 16 -78 25 -125 9 -47 23 -116 31 -155 8 -38 19 -88 24 -110 5 -22 16 -74 25 -115 9 -41 20 -93 25 -115 6 -22 19 -78 29 -125 57 -243 72 -308 81 -340 5 -19 36 -143 69 -275 33 -132 78 -311 100 -397 99 -382 122 -472 161 -623 23 -88 79 -311 125 -495 46 -184 88 -354 94 -377 9 -37 8 -50 -13 -95 -21 -47 -63 -158 -86 -228 -59 -177 -120 -631 -120 -892 0 -85 25 -352 39 -413 49 -212 77 -296 141 -430 138 -287 356 -515 613 -644 125 -63 138 -67 306 -111 64 -17 254 -24 336 -12 332 46 585 254 690 567 51 154 60 216 59 440 0 235 -11 324 -69 570 -45 194 -103 378 -251 800 -136 389 -207 631 -248 845 -22 116 -46 330 -46 415 0 152 45 335 115 475 133 264 422 479 725 538 183 36 270 41 419 21 320 -43 553 -141 801 -338 161 -128 359 -360 495 -581 149 -243 319 -639 410 -955 9 -33 23 -80 30 -105 16 -55 58 -228 79 -330 9 -41 21 -95 26 -120 5 -25 14 -74 20 -110 6 -36 15 -92 21 -125 5 -33 16 -114 24 -180 8 -66 17 -131 20 -145 2 -14 12 -149 21 -301 15 -258 15 -292 -1 -505 -9 -126 -20 -247 -25 -269 -5 -22 -18 -85 -29 -140 -74 -369 -226 -708 -442 -986 -298 -382 -761 -685 -1264 -829 -177 -50 -249 -65 -530 -110 -118 -18 -461 -29 -671 -20 -226 10 -369 28 -614 79 -139 29 -393 108 -507 157 -17 8 -34 14 -37 14 -3 0 -31 12 -63 26 -394 176 -681 372 -974 664 -163 163 -271 294 -394 479 -77 116 -216 373 -260 481 -10 25 -24 59 -31 75 -16 38 -85 240 -95 280 -4 17 -16 64 -27 105 -34 131 -60 266 -84 435 -18 125 -18 656 0 750 67 354 151 560 384 950 151 253 157 272 138 412 -49 367 -180 672 -308 714 -45 15 -148 3 -240 -27 -446 -148 -886 -688 -1102 -1354 -50 -154 -58 -184 -88 -320 -49 -226 -65 -334 -83 -570 -20 -249 -21 -290 -10 -290 8 0 11 -64 11 -201 0 -110 4 -198 8 -195 5 3 12 -47 16 -112 7 -120 18 -191 63 -392 26 -120 32 -143 81 -300 135 -433 365 -859 669 -1240 94 -119 395 -433 508 -531 393 -341 893 -643 1390 -839 44 -18 89 -35 100 -40 38 -15 160 -58 210 -74 28 -9 79 -26 115 -37 36 -12 88 -27 115 -34 28 -7 77 -20 110 -30 33 -9 78 -20 100 -24 22 -5 83 -18 135 -29 375 -80 628 -109 1045 -119 354 -8 651 17 995 83 761 146 1453 471 2010 943 604 511 1012 1163 1195 1906 35 142 54 238 62 310 2 22 7 47 10 55 3 8 4 43 3 78 -1 35 3 62 9 62 6 0 10 73 11 193 0 119 5 193 11 195 6 3 5 10 -3 20 -11 13 -11 14 1 8 11 -7 12 8 7 90 -3 55 -10 171 -15 259 -24 399 -79 779 -161 1115 -5 19 -15 62 -23 95 -102 420 -301 916 -518 1295 -466 813 -1130 1364 -1924 1599 -246 73 -424 103 -740 126 -188 14 -228 14 -370 0 -197 -18 -314 -41 -490 -94 -38 -12 -79 -26 -90 -31 -11 -5 -56 -23 -100 -41 -212 -86 -447 -241 -586 -386 -57 -59 -151 -180 -181 -234 -18 -32 -38 -51 -38 -35 0 2 -14 57 -30 122 -17 66 -37 146 -45 179 -23 100 -54 228 -65 265 -5 19 -41 166 -80 325 -39 160 -73 299 -76 310 -42 162 -86 332 -99 380 -10 33 -21 74 -25 90 -62 225 -184 581 -250 730 -140 314 -218 462 -385 735 -157 254 -299 466 -508 754 -90 126 -114 152 -145 163 -52 18 -57 17 -86 -17z"/>
 <path d="M3 4265 c0 -38 2 -53 4 -32 2 20 2 52 0 70 -2 17 -4 1 -4 -38z"/>
 </g>

</svg>